HIERARCHY
ROOT Hips
{
	OFFSET 0.000000 0.000000 0.000000 
	CHANNELS 6 Xposition Yposition Zposition Yrotation Zrotation Xrotation 
	JOINT Lumbar
	{
		OFFSET 0.000000 0.000000 0.000000 
		CHANNELS 3 Zrotation Xrotation Yrotation
		JOINT Neck
		{
			OFFSET 0.000000 0.445665 0.000000 
			CHANNELS 3 Zrotation Xrotation Yrotation
			End Site
			{
				OFFSET 0.000000 0.227535 0.000000 
			}
		}
		JOINT RightShoulder
		{
			OFFSET 0.019635 0.377685 0.194865 
			CHANNELS 3 Zrotation Xrotation Yrotation
			JOINT RightElbow
			{
				OFFSET 0.000000 -0.243375 0.000000 
				CHANNELS 2 Zrotation Yrotation
				JOINT RightWrist
				{
					OFFSET 0.000000 -0.264825 0.000000 
					CHANNELS 2 Zrotation Xrotation
					End Site
					{
						OFFSET 0.006600 -0.176220 0.000990 
					}
				}
			}
		}
		JOINT LeftShoulder
		{
			OFFSET 0.019635 0.377685 -0.194865 
			CHANNELS 3 Zrotation Xrotation Yrotation
			JOINT LeftElbow
			{
				OFFSET 0.000000 -0.243375 0.000000 
				CHANNELS 2 Zrotation Yrotation
				JOINT LeftWrist
				{
					OFFSET 0.000000 -0.264825 0.000000 
					CHANNELS 2 Zrotation Xrotation
					End Site
					{
						OFFSET 0.006600 -0.176220 -0.000990 
					}
				}
			}
		}
	}
	JOINT RightHip
	{
		OFFSET 0.052140 -0.069960 0.075570 
		CHANNELS 3 Zrotation Xrotation Yrotation
		JOINT RightKnee
		{
			OFFSET 0.000000 -0.402270 0.000000 
			CHANNELS 1 Zrotation
			JOINT RightAnkle
			{
				OFFSET 0.000000 -0.404085 0.000000 
				CHANNELS 3 Zrotation Xrotation Yrotation
				End Site
				{
					OFFSET 0.204105 -0.089430 0.008415 
				}
			}
		}
	}
	JOINT LeftHip
	{
		OFFSET 0.052140 -0.069960 -0.075570 
		CHANNELS 3 Zrotation Xrotation Yrotation
		JOINT LeftKnee
		{
			OFFSET 0.000000 -0.402270 0.000000 
			CHANNELS 1 Zrotation
			JOINT LeftAnkle
			{
				OFFSET 0.000000 -0.404085 0.000000 
				CHANNELS 3 Zrotation Xrotation Yrotation
				End Site
				{
					OFFSET 0.204105 -0.089430 -0.008415 
				}
			}
		}
	}
}
MOTION
Frames: 19
Frame Time: 0.02
0.49488 0.09219 0.12319 28.77777 -10.67956 -2.07225 37.07629 5.52645 -1.24359 -19.35216 -3.2628 -0.83079 -15.38332 -17.83749 -3.09775 33.86363 113.561 8.85331 5.46861 86.88507 59.36802 -64.05199 15.11831 -140.69736 29.54023 -6.19304 16.81396 3.84526 -8.60238 -10.809 -9.3863 -5.33393 -3.63969 26.08311 7.79873 -0.09893 -21.17006 -9.79846 2.92552 2.28322
0.49589 0.092 0.1251 28.84979 -10.68218 -2.18133 37.09269 5.40785 -0.98938 -19.43967 -2.72433 -0.83079 -15.05571 -17.3877 -3.12212 33.90003 113.21923 8.63682 5.51672 82.85032 61.13636 -62.86022 18.79594 -138.92096 30.25101 -5.63677 16.76977 4.10073 -8.66379 -10.69202 -9.37526 -5.33711 -3.64075 26.0066 8.0538 -0.07385 -20.95135 -9.78726 2.89393 2.26799
0.49699 0.09188 0.12692 28.87546 -10.68251 -2.2711 37.1161 5.27136 -0.78516 -19.4474 -2.269 -0.83079 -14.89473 -16.88908 -3.07756 34.07114 111.71172 8.2373 5.34781 78.28841 62.91451 -61.34621 23.14389 -136.78574 31.00363 -5.01936 16.70696 4.34435 -8.64721 -10.54871 -9.36906 -5.34148 -3.64245 25.87363 8.30279 -0.27446 -20.67585 -9.77768 2.85882 2.25227
0.49803 0.09173 0.12877 28.92128 -10.68433 -2.36919 37.13526 5.14413 -0.56589 -19.48483 -1.788 -0.83079 -14.66614 -16.40863 -3.06211 34.17994 110.76491 7.92343 5.28505 74.00309 64.65915 -60.03013 27.20337 -134.81766 31.68198 -4.43997 16.65368 4.59203 -8.66578 -10.41831 -9.36064 -5.34513 -3.6438 25.76971 8.5549 -0.3541 -20.43118 -9.7676 2.82471 2.2363
0.49913 0.09157 0.13066 28.96954 -10.68397 -2.47027 37.15887 5.01198 -0.31734 -19.54817 -1.25502 -0.83079 -14.40245 -15.94022 -3.06249 34.29494 109.72644 7.60576 5.19753 69.54922 66.53969 -58.50531 31.20853 -132.83763 32.5991 -3.81579 16.59485 4.84638 -8.68689 -10.28319 -9.35199 -5.34931 -3.64529 25.6484 8.81016 -0.50743 -20.16208 -9.75544 2.79093 2.22106
0.50014 0.09144 0.13244 29.00095 -10.68856 -2.55989 37.17563 4.88573 -0.14081 -19.53926 -0.85061 -0.83079 -14.25098 -15.43816 -3.00693 34.42623 108.5817 7.24843 5.10699 65.32661 68.12693 -57.32724 35.47846 -130.78371 33.01963 -3.27015 16.54503 5.08332 -8.68491 -10.15276 -9.34471 -5.35257 -3.64655 25.55214 9.0548 -0.56755 -19.93225 -9.74863 2.75719 2.2051
0.50091 0.09139 0.13395 29.013 -10.69658 -2.62533 37.1622 4.78217 -0.14723 -19.35014 -0.77909 -0.83079 -14.37904 -14.84104 -2.8659 34.5974 107.49401 6.84513 5.06551 61.86771 68.99294 -57.29129 40.34107 -128.76266 32.15051 -2.96711 16.50582 5.27856 -8.6226 -10.03101 -9.34463 -5.35546 -3.64871 25.52497 9.28202 -0.2494 -19.81682 -9.75364 2.71543 2.18176
0.50159 0.09136 0.13535 29.00697 -10.7113 -2.6792 37.14301 4.68491 -0.22491 -19.09119 -0.83504 -0.83079 -14.61298 -14.21484 -2.66207 34.77581 106.32235 6.40383 5.0267 58.66516 69.54519 -57.59891 45.43908 -126.65763 30.76677 -2.7438 16.47932 5.45585 -8.54189 -9.91665 -9.34504 -5.35701 -3.65034 25.52735 9.49651 0.15998 -19.74457 -9.76454 2.67552 2.15871
0.5023 0.09133 0.13681 28.99946 -10.73028 -2.73655 37.13297 4.58342 -0.27152 -18.86481 -0.83324 -0.83079 -14.79135 -13.61175 -2.45112 34.9321 105.14215 5.96722 4.98296 55.34549 70.18146 -57.67601 50.4129 -124.48842 29.55451 -2.47702 16.45977 5.63905 -8.47994 -9.80614 -9.34222 -5.35762 -3.65114 25.52613 9.70914 0.48273 -19.65827 -9.77463 2.64109 2.13937
0.50307 0.09129 0.13825 29.03191 -10.71945 -2.80105 37.09682 4.48682 -0.31312 -18.63274 -0.83144 -0.83079 -15.00537 -12.9653 -2.3838 35.17036 104.12066 5.57831 4.94762 51.99718 71.06787 -58.04304 55.48933 -122.7193 28.59329 -2.23768 16.38759 5.83163 -8.373 -9.6651 -9.35203 -5.36475 -3.65644 25.48324 9.95294 0.98155 -19.54697 -9.77708 2.58058 2.10427
0.50369 0.09125 0.13969 28.97657 -10.77096 -2.84779 37.11209 4.38209 -0.38297 -18.39617 -0.86151 -0.83079 -15.1701 -12.40269 -2.009 35.24062 102.76171 5.08229 4.89801 48.79217 71.35557 -57.90808 60.39118 -120.12584 27.00372 -1.96209 16.4261 6.0002 -8.35445 -9.58871 -9.3359 -5.35802 -3.65227 25.53262 10.13004 1.14669 -19.49805 -9.79658 2.57394 2.10145
0.50393 0.09121 0.14115 28.69081 -11.00486 -2.85145 37.28371 4.25066 -0.49995 -18.1715 -0.92533 -0.83079 -15.15535 -12.08158 -0.75178 34.82104 100.51598 4.3108 4.81078 45.78849 70.09031 -56.16527 64.81548 -115.07046 23.65691 -1.55739 16.78634 6.10982 -8.60165 -9.69816 -9.24527 -5.31297 -3.62174 25.8497 10.1156 0.29581 -19.61734 -9.86381 2.72406 2.19318
0.50403 0.09116 0.1426 28.31599 -11.29915 -2.83717 37.50498 4.11151 -0.64528 -17.94373 -1.02078 -0.83079 -15.08985 -11.84591 0.80313 34.23617 97.93715 3.43253 4.70976 42.94794 68.22789 -53.93203 69.03935 -109.22876 19.72342 -1.11556 17.2542 6.19541 -8.93577 -9.87091 -9.12902 -5.25406 -3.58176 26.25521 10.03631 -0.88002 -19.797 -9.94764 2.92687 2.31645
0.50419 0.09112 0.14404 27.97742 -11.55787 -2.82912 37.6948 3.97768 -0.78602 -17.71312 -1.1164 -0.83079 -15.05809 -11.5691 2.18966 33.74192 95.49751 2.59572 4.61445 40.12111 66.62461 -52.01606 73.31284 -103.88401 16.15484 -0.69722 17.66015 6.2901 -9.21902 -10.00877 -9.02632 -5.20178 -3.54634 26.60724 9.99372 -1.85769 -19.94502 -10.02247 3.09993 2.4216
0.50435 0.09107 0.14552 27.65666 -11.8507 -2.8287 37.9213 3.83609 -0.89373 -17.49815 -1.15489 -0.83079 -14.98472 -11.29964 3.71879 33.1818 93.09579 1.78376 4.52123 36.92997 65.06611 -49.71619 77.77656 -97.94644 12.15145 -0.25357 18.12083 6.39178 -9.54897 -10.17245 -8.91564 -5.14816 -3.50982 27.01613 9.92066 -3.04281 -20.11222 -10.10353 3.29719 2.54244
0.50447 0.09102 0.14693 27.2771 -12.08727 -2.80838 38.08406 3.70915 -1.07669 -17.25056 -1.3185 -0.83079 -14.985 -11.03724 5.01995 32.72048 90.54958 0.89966 4.42066 34.53561 63.27156 -48.09148 81.78511 -93.05838 8.92348 0.14705 18.49366 6.47349 -9.80331 -10.2976 -8.81543 -5.09392 -3.4733 27.32756 9.8952 -3.8775 -20.2533 -10.17564 3.457 2.63846
0.50451 0.091 0.14817 26.764 -12.14908 -2.73685 38.05186 3.62116 -1.45486 -16.9159 -1.81689 -0.83079 -15.19679 -10.75967 5.62521 32.56432 87.58476 -0.194 4.30014 34.2814 61.01505 -48.48104 84.65123 -91.26073 7.9635 0.42119 18.59099 6.50553 -9.82093 -10.29818 -8.75085 -5.04249 -3.4397 27.34507 10.02256 -3.63616 -20.30681 -10.21762 3.49653 2.65491
0.50452 0.09098 0.14935 26.19367 -12.15301 -2.64616 37.95512 3.54881 -1.9087 -16.5484 -2.44011 -0.83079 -15.48477 -10.48927 5.98919 32.51503 84.50739 -1.34871 4.17271 34.82656 58.53462 -49.55979 87.05135 -90.5477 7.8104 0.65067 18.59731 6.51851 -9.76063 -10.25823 -8.69761 -4.99071 -3.40632 27.26183 10.19918 -3.03653 -20.33179 -10.25021 3.49728 2.64586
0.50453 0.09097 0.15054 25.64486 -12.1865 -2.56465 37.8924 3.47146 -2.33093 -16.1949 -3.00733 -0.83079 -15.74003 -10.22435 6.4592 32.42175 81.54594 -2.45236 4.05121 35.01696 56.13011 -50.30161 89.6224 -89.33753 7.30073 0.90031 18.64963 6.54052 -9.74067 -10.23858 -8.63882 -4.93832 -3.37242 27.22673 10.34961 -2.6206 -20.3701 -10.288 3.51844 2.65069
